<svg id="Layer_1" data-name="Layer 1" xmlns="http://www.w3.org/2000/svg" viewBox="0 0 90.2 72.1"><defs><style>.cls-1{stroke:#000;stroke-miterlimit:10;}</style></defs><path class="cls-1" d="M88,48c-4-4.3-13.3-5.8-21.2-5.2-10.8.9-20.9,6.7-26.3,15.1a39.9,39.9,0,0,0-4.1,9.4c-2.5,7-4.9,13.7-12.5,14.9S15.2,81,13.1,77.5s-2.8-6.6-1.5-13.4c2.7-13.4,24.1-17.4,44.5-20.8l2.5-.5c13.3-2.2,25.6-9.3,23.6-21.7-1-6.1-9.4-8.2-16.1-8.6-1.2,0-32.9-2.3-38.6,16.9-.8,2.7,1,6.3,3.4,8.6s13,3.3,21.1,1.3c4.6-1.1,10.4-4.3,10.8-8.1s-1-7.9-4.6-9.3c-7.8-3.3-19.4.4-18.2,6.6.8,4,3.3,5.1,6.1,4.9s3.9-1.5,4.1-3.1-.6-3.4-2.8-3.2a2,2,0,0,0-1.9,2A2,2,0,0,0,47.4,31c1.1.1.4,1.5-1.3,1.7s-3.3.6-4-3.8,7.9-9.3,12.5-6.3c2.1,1.4,4.7,5.2,4.3,9s-1.6,5.7-7.1,7.1C44,40.6,38,38.1,35.1,35.2s-3.8-5.5-3-7.9c5.3-15.6,32.1-14.1,33.3-14,6.2.5,9.7,3.1,10.4,8.5,1,7.1-4.5,18.2-17.3,20.4l-2.5.4C35.3,46.1,9.6,50.4,6.8,64.3c-1.4,7-.5,12.1,2.5,15.3s5.7,3.6,10.2,3.6a24.2,24.2,0,0,0,4.5-.4c8.1-1.2,10.6-8.3,13-15.3a40.3,40.3,0,0,1,4.1-9.2c5.3-8.2,15.2-13.9,25.8-14.8,7.7-.6,14.5,1.4,18.3,5.5a20.7,20.7,0,0,1,5.5,18A18.1,18.1,0,0,1,80.5,80.1c-5.8,2.7-10.8,2.9-14.8.6S58.4,71.8,58,68c10.5-.1,12.6-3.5,13-5.1a4.2,4.2,0,0,0-2.6-4.6c-2-.9-4.7-.4-7,1.2a9.6,9.6,0,0,0-4.2,7.9l-3.6-.2c-13.7-.8-16.4,4.7-17,7s.7,6,3.1,7a9.5,9.5,0,0,0,8.6-.5,4.8,4.8,0,0,0,2.3-4.1c0-3.6-2-4.3-2.9-4.4a3.6,3.6,0,0,0-3.8,2.3,2.4,2.4,0,0,0,1.2,2.9h1.1a2,2,0,0,0,1.9-1.9,2,2,0,0,0-1.9-2c-.7,0,.1-1.1,1.4-.9s2.3,1.5,2.3,3.7a3.9,3.9,0,0,1-2,3.5,6.2,6.2,0,0,1-6.7.6C39.5,80,38,76.8,38.7,74c1-4.6,5.7-6.6,14.8-6.1l3.8.2c.4,3.8,2.9,10.2,8.1,13.2s10.7,3.1,17,.8S93.7,76.9,95,67.5,92.7,53.1,88,48ZM61.8,60.1c3.3-2.4,5-1.1,5.4-.9a4.4,4.4,0,0,1,2.1,4c0,1.2-1,4-11.4,4.2A8.6,8.6,0,0,1,61.8,60.1Z" transform="translate(-5.7 -11.9)"/><path class="cls-1" d="M45.6,77.4l-.4-.2Z" transform="translate(-5.7 -11.9)"/></svg>